<?xml version="1.0" encoding="UTF-8"?>
<svg version="1.1" xmlns="http://www.w3.org/2000/svg" width="244" height="99" viewBox="16 47 244 99">
	<path
		d="M0 0 C24.60048426 0 24.60048426 0 29.828125 4.61328125 C35.96213084 11.94375526 36.76945555 18.56796426 36 28 C34.93940728 33.78505121 32.42023599 37.0903094 27.9140625 40.7734375 C18.74338038 46.65016033 12.56474698 44 0 44 C0 29.48 0 14.96 0 0 Z M6 5 C6 16.22 6 27.44 6 39 C16.46274429 39.45348734 16.46274429 39.45348734 25 35 C29.06638157 30.10421482 29.57734125 24.74517422 29.3203125 18.55078125 C28.7142109 13.72414289 27.04591549 10.9922788 23.5625 7.6875 C17.7757214 3.87669458 13.33187141 5 6 5 Z "
		fill="#fff" transform="translate(41,77)" />
	<path
		d="M0 0 C2.31 0 4.62 0 7 0 C10.57386007 8.50880938 14.06783191 17.04771928 17.50415039 25.61279297 C18.05048727 26.97277743 18.59838017 28.33213768 19.14770508 29.69091797 C19.95205809 31.68064574 20.75193882 33.67211702 21.55078125 35.6640625 C22.25714722 37.41904053 22.25714722 37.41904053 22.9777832 39.20947266 C24 42 24 42 24 44 C21.69 44 19.38 44 17 44 C16.16235732 42.04350603 15.33000941 40.08474444 14.5 38.125 C14.0359375 37.03445312 13.571875 35.94390625 13.09375 34.8203125 C12 32 12 32 12 30 C6.39 30 0.78 30 -5 30 C-5.495 32.475 -5.495 32.475 -6 35 C-6.64239456 36.62275573 -7.32962672 38.22854807 -8.0625 39.8125 C-8.42472656 40.60269531 -8.78695312 41.39289063 -9.16015625 42.20703125 C-9.43730469 42.79871094 -9.71445313 43.39039063 -10 44 C-11.98 44 -13.96 44 -16 44 C-15.26266931 39.05683032 -13.42785654 34.60875073 -11.62109375 29.98046875 C-11.28956802 29.12189774 -10.9580423 28.26332672 -10.61647034 27.3787384 C-9.56059091 24.64684607 -8.49912889 21.91716251 -7.4375 19.1875 C-6.7190313 17.3315233 -6.00092815 15.47540504 -5.28320312 13.61914062 C-3.52636713 9.07777589 -1.76452246 4.53838342 0 0 Z M3 9 C2.16280617 11.29032311 1.3301071 13.58210957 0.5 15.875 C0.26152344 16.52597656 0.02304688 17.17695312 -0.22265625 17.84765625 C-1.54877533 21.33457589 -1.54877533 21.33457589 -2 25 C1.96 25 5.92 25 10 25 C9.21735638 22.51764563 8.42444723 20.03943904 7.625 17.5625 C7.40328125 16.85544922 7.1815625 16.14839844 6.953125 15.41992188 C6.35897394 13.5937811 5.68450381 11.79422968 5 10 C4.34 9.67 3.68 9.34 3 9 Z "
		fill="#fff" transform="translate(130,77)" />
	<path
		d="M0 0 C-0.66 1.98 -1.32 3.96 -2 6 C-2.78375 5.835 -3.5675 5.67 -4.375 5.5 C-8.89224236 4.87693209 -13.45178748 4.51736594 -18 5 C-20.38019174 6.9254884 -20.38019174 6.9254884 -20.1171875 10.36328125 C-18.92409749 14.24708123 -18.82449767 14.5283328 -15.5078125 16.29296875 C-14.05875054 16.95127204 -12.59694253 17.58208364 -11.125 18.1875 C-2.07883674 22.09054584 -2.07883674 22.09054584 0 26 C1.07799557 30.08098323 1.10582491 32.58375535 0.0625 36.6875 C-2.6566306 41.05458855 -5.03885225 42.71548578 -10 44 C-16.39727788 44.60963203 -22.0937186 44.73946262 -28 42 C-28 40.02 -28 38.04 -28 36 C-27.31164062 36.15984375 -26.62328125 36.3196875 -25.9140625 36.484375 C-22.69475566 37.05401106 -19.64356706 37.20491632 -16.375 37.25 C-15.24835938 37.27578125 -14.12171875 37.3015625 -12.9609375 37.328125 C-10.05339448 37.20800116 -10.05339448 37.20800116 -8.0390625 35.859375 C-6.78878857 33.93012538 -6.78878857 33.93012538 -6.7890625 31.09375 C-8.6172376 26.4230575 -11.95615564 25.47115116 -16.375 23.5 C-24.39855543 19.885428 -24.39855543 19.885428 -27.03515625 16.00390625 C-28.42463345 11.67796307 -28.45480465 8.31671543 -27 4 C-20.43584052 -4.288476 -9.01934503 -3.20687823 0 0 Z "
		fill="#fff" transform="translate(111,78)" />
	<path
		d="M0 0 C2.31 0 4.62 0 7 0 C7.32798584 0.93384521 7.65597168 1.86769043 7.99389648 2.82983398 C9.20796849 6.2841428 10.42579356 9.73711833 11.64477539 13.18969727 C12.17249899 14.6860789 12.69919492 16.18282335 13.22485352 17.67993164 C13.97925228 19.82794169 14.73729994 21.97463297 15.49609375 24.12109375 C15.73154404 24.79401962 15.96699432 25.4669455 16.20957947 26.16026306 C17.1720191 29.32824652 17.1720191 29.32824652 19 32 C19.32798584 31.06615479 19.65597168 30.13230957 19.99389648 29.17016602 C21.20796849 25.7158572 22.42579356 22.26288167 23.64477539 18.81030273 C24.17249899 17.3139211 24.69919492 15.81717665 25.22485352 14.32006836 C25.97925228 12.17205831 26.73729994 10.02536703 27.49609375 7.87890625 C27.73154404 7.20598038 27.96699432 6.5330545 28.20957947 5.83973694 C29.88612829 1.11387171 29.88612829 1.11387171 31 0 C33.33297433 -0.04092937 35.66705225 -0.04241723 38 0 C36.66846024 3.87406356 35.33579511 7.74773817 34.00219727 11.62109375 C33.55106032 12.93186617 33.10020256 14.24273472 32.6496582 15.55371094 C30.20129816 22.67720765 27.7379482 29.7955095 25.23046875 36.8984375 C24.82594482 38.04747559 24.4214209 39.19651367 24.00463867 40.38037109 C23 43 23 43 22 44 C19.66702567 44.04092937 17.33294775 44.04241723 15 44 C6.3133799 21.02426701 6.3133799 21.02426701 2.4375 10.1875 C2.18661621 9.49599854 1.93573242 8.80449707 1.67724609 8.09204102 C0.67009851 5.24711983 0 3.04426446 0 0 Z "
		fill="#00DC83" transform="translate(170,77)" />
	<path
		d="M0 0 C21.5 0 21.5 0 26.75 4.5 C29.60980722 7.93176867 29.28758225 11.75816185 29 16 C27.26005719 20.67037281 25.15827629 23.26162293 21 26 C16.15228638 27.61940976 11.04426167 27.06005073 6 27 C6 32.61 6 38.22 6 44 C4.02 44 2.04 44 0 44 C0 29.48 0 14.96 0 0 Z M6 5 C6 10.61 6 16.22 6 22 C13.57061075 21.90950575 13.57061075 21.90950575 20.1875 18.8125 C22.34659888 15.46217415 22.74831873 13.90788668 22 10 C20.1329009 7.69724444 18.64352259 6.32176129 16 5 C14.29297265 4.93003986 12.58331997 4.91559846 10.875 4.9375 C9.26625 4.958125 7.6575 4.97875 6 5 Z "
		fill="#00DB82" transform="translate(213,77)" />
</svg>